<?xml version="1.0" encoding="UTF-8"?>
<!-- Generator: Adobe Illustrator 27.3.1, SVG Export Plug-In . SVG Version: 6.00 Build 0)  -->
<svg xmlns="http://www.w3.org/2000/svg" xmlns:xlink="http://www.w3.org/1999/xlink" version="1.1" id="Layer_1" x="0px" y="0px" viewBox="0 0 247.2 85" style="enable-background:new 0 0 247.2 85;" xml:space="preserve" aria-label="PL Capital">
<style type="text/css">
	.st0{enable-background:new    ;}
	.st1{fill:#0000A0;}
	.st2{fill:#1FB15A;}
</style>
<g>
	<g>
		<g class="st0">
			<path class="st1" d="M73.2,63.2v2.4h-1.4v-6.9h2.8c1.5,0,2.4,0.8,2.4,2.3c0,1.5-1,2.2-2.4,2.2H73.2z M74.5,59.9h-1.3v2.1h1.3     c0.7,0,1.1-0.4,1.1-1C75.6,60.3,75.2,59.9,74.5,59.9z"></path>
			<path class="st1" d="M81.4,63v2.6H80v-6.9h2.8c1.4,0,2.4,0.8,2.4,2.2c0,1.1-0.6,1.8-1.6,2l1.8,2.7h-1.6L82.1,63H81.4z M81.4,61.8     h1.3c0.7,0,1.1-0.4,1.1-1c0-0.6-0.4-1-1.1-1h-1.3V61.8z"></path>
		</g>
		<g class="st0">
			<path class="st1" d="M93.5,58.6l2.6,6.9h-1.5L94,63.9h-2.6l-0.6,1.7h-1.4l2.6-6.9H93.5z M91.9,62.7h1.7l-0.8-2.3L91.9,62.7z"></path>
		</g>
		<g class="st0">
			<path class="st1" d="M104.9,63.6c0,1.3-0.9,2-2.3,2h-2.9v-6.9h2.6c1.4,0,2.3,0.6,2.3,1.9c0,0.7-0.4,1.3-0.9,1.5     C104.5,62.2,104.9,62.8,104.9,63.6z M102.3,61.5c0.7,0,1-0.3,1-0.8c0-0.6-0.4-0.8-1-0.8h-1.2v1.6H102.3z M101.1,64.3h1.4     c0.7,0,1-0.3,1-0.9c0-0.5-0.4-0.9-1-0.9h-1.4V64.3z"></path>
		</g>
		<g class="st0">
			<path class="st1" d="M114.8,58.6v6.9h-1.4v-2.9h-3.1v2.9h-1.4v-6.9h1.4v2.7h3.1v-2.7H114.8z"></path>
		</g>
		<g class="st0">
			<path class="st1" d="M118.8,62.8v-4.1h1.4v4c0,1.2,0.5,1.7,1.4,1.7s1.4-0.6,1.4-1.7v-4h1.4v4.1c0,1.9-1.1,2.9-2.9,2.9     C119.9,65.7,118.8,64.7,118.8,62.8z"></path>
		</g>
		<g class="st0">
			<path class="st1" d="M128.6,58.6h2.4c2.1,0,3.4,1.3,3.4,3.4c0,2.1-1.3,3.4-3.4,3.4h-2.4V58.6z M130.9,64.3c1.3,0,2-0.8,2-2.2     c0-1.3-0.7-2.2-2-2.2h-1v4.4H130.9z"></path>
		</g>
		<g class="st0">
			<path class="st1" d="M141.4,58.6l2.6,6.9h-1.5l-0.6-1.7h-2.6l-0.6,1.7h-1.4l2.6-6.9H141.4z M139.9,62.7h1.7l-0.8-2.3L139.9,62.7z     "></path>
		</g>
		<g class="st0">
			<path class="st1" d="M147.5,63.7c0.6,0.5,1.4,0.8,2.2,0.8c0.7,0,1.2-0.2,1.2-0.8c0-0.4-0.3-0.6-0.8-0.8l-1-0.3     c-1-0.3-1.7-0.9-1.7-2c0-1.3,1.1-2,2.4-2c0.8,0,1.5,0.2,2.1,0.5v1.4c-0.6-0.4-1.2-0.7-2-0.7c-0.6,0-1.1,0.2-1.1,0.7     c0,0.4,0.3,0.6,0.8,0.8l1.1,0.4c1.2,0.4,1.7,1,1.7,2c0,1.4-1.2,2-2.6,2c-0.9,0-1.7-0.3-2.2-0.6V63.7z"></path>
			<path class="st1" d="M159.7,58.6h1.4v5.6h3.2v1.3h-4.6V58.6z"></path>
		</g>
		<g class="st0">
			<path class="st1" d="M171.3,65.5h-1.4v-6.9h1.4V65.5z"></path>
		</g>
		<g class="st0">
			<path class="st1" d="M175.4,58.6h1.4v5.6h3.2v1.3h-4.6V58.6z"></path>
		</g>
		<g class="st0">
			<path class="st1" d="M183.9,58.6h1.4v5.6h3.2v1.3h-4.6V58.6z"></path>
		</g>
		<g class="st0">
			<path class="st1" d="M196,58.6l2.6,6.9h-1.5l-0.6-1.7h-2.6l-0.6,1.7h-1.4l2.6-6.9H196z M194.4,62.7h1.7l-0.8-2.3L194.4,62.7z"></path>
		</g>
		<g class="st0">
			<path class="st1" d="M202.3,58.6h2.4c2.1,0,3.4,1.3,3.4,3.4c0,2.1-1.3,3.4-3.4,3.4h-2.4V58.6z M204.6,64.3c1.3,0,2-0.8,2-2.2     c0-1.3-0.7-2.2-2-2.2h-1v4.4H204.6z"></path>
		</g>
		<g class="st0">
			<path class="st1" d="M217.9,58.6v6.9h-1.4v-2.9h-3.1v2.9h-1.4v-6.9h1.4v2.7h3.1v-2.7H217.9z"></path>
			<path class="st1" d="M225.9,58.6v1.3h-3.3v1.5h3v1.2h-3v1.6h3.3v1.3h-4.7v-6.9H225.9z"></path>
		</g>
		<g class="st0">
			<path class="st1" d="M232.1,63v2.6h-1.4v-6.9h2.8c1.4,0,2.4,0.8,2.4,2.2c0,1.1-0.6,1.8-1.6,2l1.8,2.7h-1.6l-1.7-2.6H232.1z      M232.1,61.8h1.3c0.7,0,1.1-0.4,1.1-1c0-0.6-0.4-1-1.1-1h-1.3V61.8z"></path>
		</g>
		<g class="st0">
			<path class="st1" d="M84,47.5H72.7v-0.9c2,0,2.6-0.3,2.6-2.1v-17c0-1.9-0.6-2.1-2.6-2.1v-0.9h10.2c5.2,0,9.8,1.9,9.8,6.3     c0,4.4-4.5,6.6-9,6.6c-1.2,0-2.2-0.1-3.1-0.3v7.4c0,1.7,0.5,2.1,3.4,2.1V47.5z M87.6,30.7c0-3.9-2.6-5.2-6-5.2h-1v10.6     c0.7,0.2,1.4,0.2,1.9,0.2C85.4,36.3,87.6,34.5,87.6,30.7z"></path>
		</g>
		<g class="st0">
			<path class="st1" d="M94.8,47.5v-0.9c2,0,2.6-0.3,2.6-2.1v-17c0-1.9-0.6-2.1-2.6-2.1v-0.9h10.5v0.9c-2,0-2.6,0.3-2.6,2.1v17.2     c0,1.4,0.6,1.8,2,1.8h1.5c3.9,0,5.3-0.9,6.5-6.1h0.8l-0.8,7.2H94.8z"></path>
		</g>
		<g class="st0">
		</g>
		<g class="st0">
			<path class="st1" d="M138.1,45.6c2,0,3.8-0.5,5.5-2.5l0.7,0.6c-1.4,2.1-4.4,4.1-8.7,4.1c-6,0-11.9-4.4-11.9-11.6     c0-7.1,5.6-12.2,12.3-12.2c3.2,0,4.9,1.4,5.8,1.4c0.6,0,0.8-0.4,1-1.1h0.6l0.3,7h-0.8c-0.5-3.7-2.9-6.1-6.7-6.1     c-4,0-7.2,3.6-7.2,9C129.1,41.4,133.7,45.6,138.1,45.6z"></path>
			<path class="st1" d="M151.1,33c-1.8,0-3.2,1.1-4.2,3.2l-0.8-0.3c1-3,3.6-5.4,7.3-5.4c3.9,0,6.3,2.4,6.3,6.2v7.7     c0,0.9,0.5,1.4,1.1,1.4c0.5,0,0.8-0.2,1.2-0.7l0.5,0.5c-0.7,1.1-2.1,2.2-3.9,2.2c-1.7,0-3.3-0.8-3.9-2.7     c-0.9,1.4-2.7,2.7-4.8,2.7c-2.3,0-4.2-1.4-4.2-3.8c0-2.6,2.2-3.7,5.4-5l3.6-1.3v-0.9C154.7,34.8,153.7,33,151.1,33z M152.7,39.6     c-1.5,0.6-2.5,1.4-2.5,3.3c0,1.6,1,2.7,2.4,2.7c0.7,0,1.5-0.3,2.1-1v-5.7L152.7,39.6z"></path>
			<path class="st1" d="M172.1,54.7h-9.6v-0.8c1.6,0,1.9-0.3,1.9-2.1V34c0-1.9-0.3-2.2-1.9-2.2V31h6.9v2.4c0.9-1.2,2.6-2.8,5-2.8     c4,0,6.9,3.3,6.9,8c0,5.8-4.1,9.3-8.1,9.3c-1.6,0-2.9-0.5-3.8-1.2v5.1c0,1.9,0.4,2.1,2.7,2.1V54.7z M176.2,39.4     c0-3.9-1.4-6.7-4.1-6.7c-1,0-2,0.6-2.6,1.5v11.6c0.7,0.5,1.5,0.8,2.3,0.8C173.7,46.6,176.2,44.7,176.2,39.4z"></path>
		</g>
		<g class="st0">
			<path class="st1" d="M185.4,31.8V31h7v13.6c0,1.9,0.3,2.1,1.9,2.1v0.8h-8.9v-0.8c1.7,0,2-0.3,2-2.1V33.9     C187.4,32.1,187.1,31.8,185.4,31.8z M189.9,23.1c1.5,0,2.8,1.2,2.8,2.7s-1.2,2.7-2.8,2.7c-1.6,0-2.9-1.1-2.9-2.7     S188.3,23.1,189.9,23.1z"></path>
		</g>
		<g class="st0">
			<path class="st1" d="M202.5,26.1h0.3v4.9c1.2,0,4,0,5.1-0.2l-0.2,1.3h-4.9v10.3c0,1.8,0.8,3.1,2.4,3.1c1.2,0,1.9-0.5,2.7-1.6     l0.5,0.5c-1.2,2-3.2,3.4-5.7,3.4c-2.9,0-5-2-5-4.9l0.1-10.8h-1.9v-0.6C198.4,30.4,201.2,28,202.5,26.1z"></path>
			<path class="st1" d="M214.5,33c-1.8,0-3.2,1.1-4.2,3.2l-0.8-0.3c1-3,3.6-5.4,7.3-5.4c3.9,0,6.3,2.4,6.3,6.2v7.7     c0,0.9,0.5,1.4,1.1,1.4c0.5,0,0.8-0.2,1.2-0.7l0.5,0.5c-0.7,1.1-2.1,2.2-3.9,2.2c-1.7,0-3.3-0.8-3.9-2.7     c-0.9,1.4-2.7,2.7-4.8,2.7c-2.3,0-4.2-1.4-4.2-3.8c0-2.6,2.2-3.7,5.4-5l3.6-1.3v-0.9C218,34.8,217,33,214.5,33z M216,39.6     c-1.5,0.6-2.5,1.4-2.5,3.3c0,1.6,1,2.7,2.4,2.7c0.7,0,1.5-0.3,2.1-1v-5.7L216,39.6z"></path>
		</g>
		<g class="st0">
			<path class="st1" d="M227.4,23.6v-0.8h7.3v21.8c0,1.9,0.3,2.1,1.9,2.1v0.8h-8.9v-0.8c1.7,0,1.9-0.3,1.9-2.1V25.7     C229.7,23.8,229.2,23.6,227.4,23.6z"></path>
		</g>
	</g>
	<g>
		<g>
			<g>
				<path class="st1" d="M35.5,31.1c-0.8,0.8-2,0.8-2.7,0l-1.2-1.2l-1.3-1.3l-8-8L12.1,30.8l4.7,4.7h4.7l-4.7-4.7l5.5-5.5l8,8      l1.1,1.1l0.2,0.2v0c1.5,1.3,3.8,1.3,5.3-0.2l0.1-0.1v-4.7L35.5,31.1z"></path>
			</g>
			<g>
				<path class="st1" d="M22.6,41.3c0.8,0.8,0.8,2,0,2.7l-1.2,1.2l-1.3,1.3l-8,8l10.1,10.2l4.7-4.7v-4.7l-4.7,4.7l-5.5-5.5l8-8      l1.1-1.1l0.2-0.2h0c1.3-1.5,1.3-3.8-0.2-5.3l-0.1-0.1h-4.7L22.6,41.3z"></path>
			</g>
			<g>
				<path class="st1" d="M32.8,54.1c0.8-0.8,2-0.8,2.7,0l1.2,1.2l1.3,1.3l8,8l10.2-10.2l-4.7-4.7h-4.7l4.7,4.7L46,59.9l-8-8      l-1.1-1.1l-0.2-0.2v0c-1.5-1.3-3.8-1.3-5.3,0.2l-0.1,0.1v4.7L32.8,54.1z"></path>
			</g>
			<g>
				<path class="st1" d="M41.3,51.7c0-1.1,0.9-1.9,1.9-1.9h1.7h1.9h11.3V35.5h-6.6l-3.3,3.3h6.6v7.7H43.5h-1.6h-0.3l0,0      c-2,0.1-3.6,1.8-3.6,3.9v0.2l3.3,3.3C41.3,53.8,41.3,51.7,41.3,51.7z"></path>
			</g>
			<g>
				<path class="st1" d="M43.2,35.5c-1.1,0-1.9-0.9-1.9-1.9v-1.7V30V18.7H27v6.6l3.3,3.3V22H38v11.3v1.6v0.3l0,0      c0.1,2,1.8,3.6,3.9,3.6H42l3.3-3.3L43.2,35.5L43.2,35.5z"></path>
			</g>
			<g>
				<path class="st1" d="M27,33.5c0,1.1-0.9,1.9-1.9,1.9h-1.7h-1.9H10.2v14.4h6.6l3.3-3.3h-6.6v-7.7h11.3h1.6h0.3l0,0      c2-0.1,3.6-1.8,3.6-3.9v-0.2L27,31.4L27,33.5L27,33.5z"></path>
			</g>
			<g>
				<path class="st1" d="M25.1,49.8c1.1,0,1.9,0.9,1.9,1.9v1.7v1.9v11.3h14.4v-6.6L38,56.6v6.6h-7.7V51.9v-1.6v-0.3l0,0      c-0.1-2-1.8-3.6-3.9-3.6h-0.2l-3.3,3.3L25.1,49.8L25.1,49.8z"></path>
			</g>
			<g>
				<path class="st1" d="M48.2,38.8l-1.3,1.3l-1.2,1.2c-0.8,0.8-0.8,2,0,2.7l1.5,1.5h-4.7l-0.1-0.1c-1.5-1.5-1.5-3.8-0.2-5.3h0      l0.2-0.2l1.1-1.1l8.2-8.2l0,4.7"></path>
			</g>
			<g>
				<polygon class="st2" points="41.3,25.3 51.5,25.3 51.5,35.4 55.5,31.5 55.5,21.4 45.3,21.4     "></polygon>
			</g>
		</g>
		<g>
			<g>
				<g>
					<path class="st1" d="M27.1,10.6v0.8h-2v0.9h1.8v0.8h-1.8v1h2v0.8h-2.9v-4.3C24.2,10.6,27.1,10.6,27.1,10.6z"></path>
				</g>
				<g>
					<path class="st1" d="M29.4,13.7c0.4,0.3,0.9,0.5,1.4,0.5c0.4,0,0.8-0.1,0.8-0.5c0-0.3-0.2-0.4-0.5-0.5L30.4,13       c-0.6-0.2-1-0.5-1-1.2c0-0.8,0.7-1.2,1.5-1.2c0.5,0,1,0.1,1.3,0.3v0.9c-0.4-0.3-0.8-0.4-1.3-0.4c-0.4,0-0.7,0.1-0.7,0.4       c0,0.3,0.2,0.4,0.5,0.5l0.7,0.2c0.7,0.2,1,0.6,1,1.3c0,0.8-0.7,1.3-1.6,1.3c-0.6,0-1.1-0.2-1.4-0.4L29.4,13.7L29.4,13.7z"></path>
				</g>
				<g>
					<path class="st1" d="M34.5,10.6h3.7v0.8h-1.4v3.5h-0.9v-3.5h-1.4V10.6z"></path>
				</g>
				<g>
					<path class="st1" d="M40.5,10.6H42c1.3,0,2.1,0.8,2.1,2.1s-0.8,2.1-2.1,2.1h-1.5V10.6z M41.9,14.1c0.8,0,1.3-0.5,1.3-1.4       c0-0.8-0.5-1.4-1.3-1.4h-0.6v2.7H41.9z"></path>
				</g>
			</g>
		</g>
		<g>
			<g>
				<g>
					<path class="st1" d="M27,74.5h-0.9v-3.3l-1,0.5v-0.9l1.3-0.6H27L27,74.5L27,74.5z"></path>
				</g>
				<g>
					<path class="st1" d="M32.4,71.7c0,0.4-0.1,0.8-0.4,1.3l-0.9,1.5h-0.9l0.8-1.4c0,0-0.1,0-0.2,0c-0.8,0-1.4-0.7-1.4-1.5       c0-0.9,0.6-1.5,1.5-1.5C31.8,70.1,32.4,70.8,32.4,71.7z M30.9,72.4c0.4,0,0.7-0.3,0.7-0.8s-0.3-0.8-0.7-0.8       c-0.4,0-0.7,0.3-0.7,0.8S30.5,72.4,30.9,72.4z"></path>
				</g>
				<g>
					<path class="st1" d="M35.5,72.9h0.9V72h0.8v0.9h0.6v0.7h-0.6v0.8h-0.8v-0.8h-2.1v0l1.5-3.4h0.9L35.5,72.9z"></path>
				</g>
				<g>
					<path class="st1" d="M40.9,72.9h0.9V72h0.8v0.9h0.6v0.7h-0.6v0.8h-0.8v-0.8h-2.1v0l1.5-3.4h0.9L40.9,72.9z"></path>
				</g>
			</g>
		</g>
	</g>
</g>
</svg>
